# xmcd
#
# Track frame offsets:
#	150
#	26400
#	52774
#	82869
#	112172
#	136949
#
# Disc length: 2201 seconds
#
# Revision: 2
# Processed by: cddbd v1.5.2PL0 Copyright (c) Steve Scherf et al.
# Submitted via: audiograbber 1.83.01
#
DISCID=3f089706
DTITLE=Glashaus - 2001 - Wenn sas Liebe ist [MS-CD]
DYEAR=2001
DGENRE=Soul
TTITLE0=Wenn das Liebe ist (Director´s Cut)
TTITLE1=Wenn das Liebe ist (Namlook GM Mix)
TTITLE2=Wenn das Liebe ist (Jack Daniel`s)
TTITLE3=Wenn das Liebe ist (Nachtwandler Remix)
TTITLE4=Wenn das Liebe ist (A Cappella)
TTITLE5=Kleines Glashaus
EXTD=
EXTT0=
EXTT1=
EXTT2=
EXTT3=
EXTT4=
EXTT5=
PLAYORDER=
